<svg xmlns="http://www.w3.org/2000/svg" width="24" height="25" viewBox="0 0 24 25" fill="none"><script xmlns="" id="eppiocemhmnlbhjplcgkofciiegomcon"/><script xmlns=""/><script xmlns=""/>
<path fill-rule="evenodd" clip-rule="evenodd" d="M1.71429 0.5C1.25963 0.5 0.823594 0.680612 0.502103 1.0021C0.180612 1.32359 0 1.75963 0 2.21429L0 12.5C0 12.9547 0.180612 13.3907 0.502103 13.7122C0.823594 14.0337 1.25963 14.2143 1.71429 14.2143H8.57143C9.02609 14.2143 9.46212 14.0337 9.78361 13.7122C10.1051 13.3907 10.2857 12.9547 10.2857 12.5V2.21429C10.2857 1.75963 10.1051 1.32359 9.78361 1.0021C9.46212 0.680612 9.02609 0.5 8.57143 0.5H1.71429ZM13.7143 2.21429C13.7143 1.75963 13.8949 1.32359 14.2164 1.0021C14.5379 0.680612 14.9739 0.5 15.4286 0.5L22.2857 0.5C22.7404 0.5 23.1764 0.680612 23.4979 1.0021C23.8194 1.32359 24 1.75963 24 2.21429V5.66C24 6.11466 23.8194 6.55069 23.4979 6.87218C23.1764 7.19367 22.7404 7.37429 22.2857 7.37429H15.4286C14.9739 7.37429 14.5379 7.19367 14.2164 6.87218C13.8949 6.55069 13.7143 6.11466 13.7143 5.66V2.21429ZM13.7143 12.5C13.7143 12.0453 13.8949 11.6093 14.2164 11.2878C14.5379 10.9663 14.9739 10.7857 15.4286 10.7857H22.2857C22.7404 10.7857 23.1764 10.9663 23.4979 11.2878C23.8194 11.6093 24 12.0453 24 12.5V22.7857C24 23.2404 23.8194 23.6764 23.4979 23.9979C23.1764 24.3194 22.7404 24.5 22.2857 24.5H15.4286C14.9739 24.5 14.5379 24.3194 14.2164 23.9979C13.8949 23.6764 13.7143 23.2404 13.7143 22.7857V12.5ZM0 19.34C0 18.8853 0.180612 18.4493 0.502103 18.1278C0.823594 17.8063 1.25963 17.6257 1.71429 17.6257H8.57143C9.02609 17.6257 9.46212 17.8063 9.78361 18.1278C10.1051 18.4493 10.2857 18.8853 10.2857 19.34V22.7857C10.2857 23.2404 10.1051 23.6764 9.78361 23.9979C9.46212 24.3194 9.02609 24.5 8.57143 24.5H1.71429C1.25963 24.5 0.823594 24.3194 0.502103 23.9979C0.180612 23.6764 0 23.2404 0 22.7857V19.34Z" fill="#3DF3BB"/>
<script xmlns=""/></svg>
