<svg xmlns="http://www.w3.org/2000/svg" xmlns:xlink="http://www.w3.org/1999/xlink" viewBox="0 0 336.8 124.42"><defs><style>.cls-1{fill:url(#Безымянный_градиент);}.cls-2{fill:none;stroke:#07192f;stroke-miterlimit:10;stroke-width:1.5px;}.cls-3{fill:#371d5e;}</style><linearGradient id="&#x411;&#x435;&#x437;&#x44B;&#x43C;&#x44F;&#x43D;&#x43D;&#x44B;&#x439;_&#x433;&#x440;&#x430;&#x434;&#x438;&#x435;&#x43D;&#x442;" x1="-517.18" y1="337.03" x2="-446.09" y2="246.76" gradientTransform="translate(-75.83 -489.1) rotate(-72.33)" gradientUnits="userSpaceOnUse"><stop offset="0" stop-color="#74499a" stop-opacity="0.7"></stop><stop offset="1" stop-color="#63c6c9" stop-opacity="0.8"></stop></linearGradient></defs><title>logo_web</title><g id="&#x421;&#x43B;&#x43E;&#x439;_2" data-name="&#x421;&#x43B;&#x43E;&#x439; 2"><g id="Ebene_1" data-name="Ebene 1"><polygon class="cls-1" points="111.3 90.4 102.8 29.6 79.4 0 38.7 0.8 0 45.9 3 77.7 40.9 121.7 111.3 90.4"></polygon><polygon class="cls-2" points="42.5 32 14.1 61.2 17.9 102.1 52.4 123.6 92.7 110.6 106.3 70.7 81.9 35.2 42.5 32"></polygon><path class="cls-3" d="M126.8,82.8V51.6h10v3.9h-5.9V66.8h5.4v3.9h-5.4V82.9h-4.1Z"></path><path class="cls-3" d="M152.7,51.6V76c0,4.4-1.8,7.5-6.4,7.5s-6.4-3.1-6.4-7.5V51.6H144V75.5c0,2.5.6,4,2.3,4s2.3-1.5,2.3-4V51.6Z"></path><path class="cls-3" d="M155.6,82.8V79.5l7.6-24h-7.4V51.6h11.8v3.3l-7.6,24h7.7v3.9Z"></path><path class="cls-3" d="M169.8,82.8V79.5l7.6-24H170V51.6h11.9v3.3l-7.6,24H182v3.9Z"></path><path class="cls-3" d="M188.4,82.8V69.6c-2.5-.7-3.2-3.6-3.3-6.1l-.8-11.9h4.1l.8,11.3c.2,2.2.3,3.1,1.3,3.1s1.2-.9,1.3-3.1l.8-11.3h4.1l-.8,11.9c-.2,2.6-.9,5.4-3.3,6.1V82.8Z"></path><path class="cls-3" d="M205.8,82.8V51.6h4.1V78.9h5.2v3.9Z"></path><path class="cls-3" d="M217.5,58.4c0-4.4,1.8-7.5,6.4-7.5s6.4,3.1,6.4,7.5V75.9c0,4.4-1.8,7.5-6.4,7.5s-6.4-3.1-6.4-7.5V58.4Zm4.1.5V75.5c0,2.5.6,4,2.3,4s2.3-1.5,2.3-4V58.9c0-2.5-.6-4-2.3-4S221.6,56.4,221.6,58.9Z"></path><path class="cls-3" d="M242.7,62.5V58.9c0-2.5-.6-4-2.4-4s-2.3,1.5-2.3,4V75.5c0,2.5.6,4,2.3,4s2.3-1.5,2.3-4V70.7h-2.4V66.8h6.5V76c0,4.4-1.8,7.5-6.4,7.5s-6.4-3.1-6.4-7.5V58.4c0-4.4,1.8-7.5,6.4-7.5s6.4,3.1,6.4,7.5v4.1Z"></path><path class="cls-3" d="M250.5,82.8V51.6h4.1V82.8Z"></path><path class="cls-3" d="M267.2,62.5V58.9c0-2.5-.6-4-2.4-4s-2.3,1.5-2.3,4V75.5c0,2.5.6,4,2.3,4s2.4-1.5,2.4-4v-1h4.1V76c0,4.4-1.8,7.5-6.4,7.5s-6.4-3.1-6.4-7.5V58.4c0-4.4,1.8-7.5,6.4-7.5s6.4,3.1,6.4,7.5v4.1Z"></path><path class="cls-3" d="M280.4,82.8V51.6h4.1V78.9h5.2v3.9Z"></path><path class="cls-3" d="M301.4,82.8l-.6-7.7h-4.5l-.6,7.7h-4l1.8-25.5c.2-3,.7-6.4,5-6.4s4.8,3.3,5,6.4l1.8,25.5ZM299.6,58c-.2-2.6-.4-3.1-1-3.1s-.9.5-1,3.1l-1,13.3h4Z"></path><path class="cls-3" d="M320.8,77.1c0,3.2-1.3,5.7-4.6,5.7h-7.6V51.6h7.5c3.3,0,4.6,2.4,4.6,5.7v6.1c0,2.3-.9,4.8-2.2,5.4,1.5.6,2.3,3.1,2.3,5.4v2.9Zm-4.2-19.5c0-1.2-.3-2.1-1.6-2.1h-2.3V66.8h2.2c1.5,0,1.6-1.6,1.6-3.8l.1-5.4Zm.1,16.8c0-2.2-.2-3.8-1.8-3.8h-2.2v8.3h2.5c1.3,0,1.6-.9,1.6-2.1l-.1-2.4Z"></path><path class="cls-3" d="M327.2,68.3c-2.3-1.5-3.3-2.7-3.3-6.1V58.4c0-4.4,1.8-7.5,6.4-7.5s6.4,3.1,6.4,7.5v4.1h-4V58.9c0-2.5-.6-4-2.3-4s-2.3,1.5-2.3,4v2c0,2.3,0,2.9,3,5l2.1,1.4c2.2,1.5,3.6,2.8,3.6,6.1V76c0,4.4-1.8,7.5-6.4,7.5S324,80.4,324,76V74.4h4.1v1c0,2.5.6,4,2.4,4s2.3-1.5,2.3-4v-.7c0-2.5-.4-3.1-3.1-4.9Z"></path></g></g></svg>