<svg xmlns="http://www.w3.org/2000/svg" width="754" height="219" viewBox="0 0 754 219" fill="none"><g clip-path="url(#clip0_401_2)"><path fill-rule="evenodd" clip-rule="evenodd" d="M412.22 210.66C418.01 215.73 426.47 218.27 437.34 218.27C444.95 218.27 451.11 217.18 456.19 215.13C461.26 212.95 465.12 209.81 467.9 205.47C470.68 201.12 472 196.53 472 191.58C472 186.02 470.91 181.43 468.62 177.81C466.32 174.06 463.06 171.16 459.08 168.99C454.97 166.81 448.69 164.76 440.24 162.7C431.78 160.77 426.47 158.84 424.17 156.91C422.48 155.46 421.63 153.77 421.63 151.72C421.63 149.43 422.6 147.61 424.41 146.29C427.19 144.23 431.18 143.15 436.25 143.15C441.08 143.14 444.7 144.11 447.24 146.05C449.66 147.98 451.23 151.24 451.95 155.71L469.47 155.1C469.22 147.14 466.32 140.61 460.89 135.9C455.34 131.07 447.24 128.65 436.37 128.65C429.85 128.65 424.17 129.62 419.46 131.67C414.75 133.72 411.25 136.63 408.71 140.49C406.17 144.36 404.96 148.46 404.96 152.81C404.96 159.7 407.62 165.49 412.94 170.33C416.68 173.71 423.2 176.61 432.5 178.9C439.75 180.71 444.46 181.92 446.39 182.65C449.41 183.73 451.46 184.94 452.67 186.39C453.88 187.84 454.49 189.65 454.49 191.58C454.49 194.84 453.04 197.62 450.26 199.91C447.36 202.33 443.13 203.54 437.58 203.54C432.26 203.54 428.04 202.22 424.9 199.55C421.89 196.9 419.71 192.67 418.75 186.99L401.72 188.68C402.8 198.34 406.3 205.71 412.22 210.66Z" fill="#6A6C71"></path><path fill-rule="evenodd" clip-rule="evenodd" d="M520.19 151C524.54 146.04 530.46 143.63 537.58 143.63C544.83 143.63 550.62 146.04 554.97 151C559.32 155.83 561.49 163.2 561.49 173.22C561.49 183.24 559.2 190.74 554.72 195.81C550.26 200.76 544.58 203.3 537.57 203.3C530.56 203.3 524.89 200.76 520.3 195.69C515.84 190.62 513.54 183.25 513.54 173.47C513.55 163.44 515.72 155.95 520.19 151ZM506.9 206.43C514.51 214.28 524.78 218.27 537.58 218.27C550.38 218.27 560.53 214.28 568.14 206.43C575.74 198.46 579.49 187.59 579.49 173.58C579.49 159.45 575.62 148.45 568.01 140.48C560.41 132.63 550.13 128.64 537.46 128.64C530.33 128.64 524.17 129.73 518.74 132.02C514.75 133.71 511.01 136.37 507.5 139.87C504.12 143.37 501.46 147.36 499.53 151.71C496.88 157.75 495.54 165.12 495.54 173.93C495.55 187.83 499.29 198.58 506.9 206.43Z" fill="#6A6C71"></path><path fill-rule="evenodd" clip-rule="evenodd" d="M622.95 216.7V179.98H659.18V165.37H622.95V144.84H664.86V130.22H605.44V216.7H622.95Z" fill="#6A6C71"></path><path fill-rule="evenodd" clip-rule="evenodd" d="M728.5 216.7V144.84H753.98V130.22H685.38V144.84H710.98V216.7H728.5Z" fill="#6A6C71"></path><path fill-rule="evenodd" clip-rule="evenodd" d="M0 217.95L53.75 124.68H145.15L162.32 169.11H81.47L55.06 217.95H0Z" fill="#6A6C71"></path><path fill-rule="evenodd" clip-rule="evenodd" d="M188.62 217.94L104.74 0.21L172.03 0L255.73 217.94H188.62Z" fill="#6A6C71"></path><path fill-rule="evenodd" clip-rule="evenodd" d="M264.12 217.94L180.22 0.21L247.52 0L331.22 217.94H264.12Z" fill="#FF7A39"></path><path fill-rule="evenodd" clip-rule="evenodd" d="M340.08 217.94L424.06 0H356.66L306.52 130.54L340.08 217.94Z" fill="#FF7A39"></path></g><defs><clipPath id="clip0_401_2"><rect width="753.98" height="218.27" fill="white"></rect></clipPath></defs></svg>