<svg xmlns="http://www.w3.org/2000/svg" width="98" height="71" viewBox="0 0 98 71" fill="none"><path fill-rule="evenodd" clip-rule="evenodd" d="M74.5002 0H63.8002L67.4002 3.5C68.1002 4.2 68.1002 5.4 67.4002 6.2C66.7002 6.9 65.5002 6.9 64.8002 6.2L58.9002 0H53.0002L67.5002 13.9C68.2002 14.6 68.2002 15.8 67.5002 16.6C66.8002 17.3 65.6002 17.3 64.9002 16.6L49.0002 0H42.2002L67.5002 24.3C68.2002 25 68.2002 26.2 67.5002 27C66.8002 27.7 65.6002 27.7 64.9002 27L39.0002 0H31.3002L67.4002 34.7C68.1002 35.4 68.1002 36.6 67.4002 37.3C66.7002 38 65.5002 38 64.8002 37.3L29.0002 0C25.5002 0.4 22.7002 3.4 22.7002 7V51.7H33.3002L29.7002 48.3C29.0002 47.6 29.0002 46.4 29.7002 45.7C30.4002 45 31.6002 45 32.4002 45.7L38.2002 51.7H44.1002L29.7002 37.9C29.0002 37.2 29.0002 36 29.7002 35.2C30.4002 34.5 31.6002 34.5 32.4002 35.2L48.2002 51.6H55.0002L29.8002 27.4C29.1002 26.7 29.1002 25.5 29.8002 24.7C30.5002 24 31.7002 24 32.5002 24.7L58.3002 51.5H66.0002L29.9002 16.9C29.2002 16.2 29.2002 15 29.9002 14.3C30.6002 13.6 31.8002 13.6 32.6002 14.3L68.3002 51.5C71.8002 51.2 74.6002 48.2 74.6002 44.5V0H74.5002Z" fill="#F8AD00"></path><path fill-rule="evenodd" clip-rule="evenodd" d="M90.6996 69.7H93.8996C94.5996 69.7 95.1996 69.5 95.5996 69.2C95.9996 68.9 96.1996 68.5 96.1996 67.9C96.1996 67.4 95.9996 67 95.5996 66.7C95.1996 66.4 94.5996 66.3 93.6996 66.3H90.6996V69.7ZM90.6996 65.5H93.4996C94.1996 65.5 94.6996 65.4 95.0996 65.1C95.4996 64.8 95.6996 64.4 95.6996 63.8C95.6996 63.3 95.4996 63 95.1996 62.7C94.7996 62.4 94.2996 62.3 93.6996 62.3H90.6996V65.5ZM89.6996 70.7V61.3H93.6996C94.7996 61.3 95.5996 61.6 96.1996 62.1C96.5996 62.5 96.7996 63 96.7996 63.6C96.7996 64.6 96.2996 65.3 95.2996 65.8C96.5996 66.2 97.2996 67 97.2996 68.1C97.2996 68.9 96.9996 69.5 96.3996 70C95.7996 70.5 94.9996 70.7 93.8996 70.7H89.6996ZM80.5996 67.2H84.8996L82.7996 62.4L80.5996 67.2ZM77.9996 70.7L82.2996 61.2H83.2996L87.5996 70.7H86.4996L85.3996 68.2H80.2996L79.1996 70.7H77.9996ZM70.1996 70.7V61.3H71.2996V69.7H76.5996V70.7H70.1996ZM63.6996 70.7V62.3H60.4996V61.3H67.8996V62.3H64.6996V70.7H63.6996ZM52.1996 70.7V61.3H58.9996V62.3H53.2996V65.7H58.3996V66.7H53.2996V70.8H52.1996V70.7ZM42.2996 68.7C42.9996 69.5 43.8996 69.8 44.8996 69.8C45.9996 69.8 46.7996 69.4 47.4996 68.7C48.1996 68 48.4996 67 48.4996 65.9C48.4996 64.8 48.0996 63.9 47.3996 63.1C46.6996 62.3 45.7996 62 44.6996 62C43.5996 62 42.7996 62.4 42.0996 63.1C41.3996 63.8 41.0996 64.8 41.0996 65.9C41.1996 67 41.5996 68 42.2996 68.7ZM48.2996 69.4C47.3996 70.4 46.1996 70.8 44.8996 70.8C43.4996 70.8 42.3996 70.3 41.4996 69.4C40.5996 68.5 40.1996 67.3 40.1996 66C40.1996 64.7 40.6996 63.5 41.5996 62.6C42.4996 61.6 43.6996 61.2 44.9996 61.2C46.3996 61.2 47.4996 61.7 48.3996 62.6C49.2996 63.5 49.6996 64.7 49.6996 66C49.6996 67.3 49.1996 68.4 48.2996 69.4ZM34.8996 70.8C33.4996 70.8 32.1996 70.3 31.0996 69.3L31.7996 68.5C32.2996 69 32.7996 69.3 33.2996 69.5C33.7996 69.7 34.3996 69.8 34.9996 69.8C35.5996 69.8 36.0996 69.6 36.4996 69.4C36.8996 69.1 37.0996 68.7 37.0996 68.2C37.0996 67.7 36.8996 67.4 36.5996 67.1C36.2996 66.8 35.5996 66.6 34.6996 66.4C33.5996 66.2 32.7996 65.8 32.2996 65.4C31.7996 65 31.5996 64.4 31.5996 63.6C31.5996 62.9 31.8996 62.2 32.4996 61.8C33.0996 61.3 33.7996 61.1 34.6996 61.1C35.8996 61.1 36.9996 61.5 37.9996 62.3L37.3996 63.1C36.5996 62.4 35.6996 62.1 34.6996 62.1C34.0996 62.1 33.5996 62.2 33.2996 62.5C32.9996 62.8 32.7996 63.2 32.7996 63.6C32.7996 64.1 32.9996 64.4 33.2996 64.7C33.5996 65 34.2996 65.2 35.2996 65.4C36.3996 65.6 37.0996 66 37.5996 66.4C38.0996 66.8 38.2996 67.4 38.2996 68.1C38.2996 68.9 37.9996 69.5 37.3996 70C36.5996 70.5 35.7996 70.8 34.8996 70.8Z" fill="#281D40"></path><path d="M22.8 66.1H25.7C26.4 66.1 27 65.9 27.4 65.6C27.8 65.3 28.1 64.8 28.1 64.2C28.1 63.6 27.9 63.2 27.5 62.8C27.1 62.5 26.5 62.3 25.7 62.3H22.8V66.1ZM21.7 70.7V61.3H25.7C26.9 61.3 27.7 61.6 28.4 62.2C28.9 62.7 29.1 63.3 29.1 64.1C29.1 64.9 28.9 65.5 28.4 65.9C27.9 66.4 27.3 66.7 26.5 66.8L29.4 70.6H28.1L25.4 67H22.7V70.6H21.7V70.7ZM19 69.4C17.9 70.4 16.7 70.8 15.2 70.8C13.7 70.8 12.6 70.3 11.7 69.4C10.8 68.5 10.4 67.3 10.4 65.9C10.4 64.6 10.8 63.4 11.7 62.5C12.6 61.5 13.7 61.1 15.1 61.1C15.9 61.1 16.5 61.2 17 61.4C17.5 61.6 18.1 61.9 18.6 62.3L17.9 63.1C17.1 62.4 16.1 62 15 62C14 62 13.1 62.4 12.4 63.1C11.7 63.9 11.4 64.8 11.4 65.8C11.4 66.9 11.7 67.9 12.4 68.6C13.1 69.3 14 69.7 15.1 69.7C16.1 69.7 17 69.4 17.8 68.8V66.5H14.9V65.5H18.8V69.4H19ZM0 70.7V61.3H1L6.90002 68.8V61.3H7.90002V70.7H7.10001L1 63V70.7H0Z" fill="#281D40"></path></svg>