<svg width="226" height="95" viewBox="0 0 226 95" fill="none" xmlns="http://www.w3.org/2000/svg">
<path d="M72.4996 17.4962H4.83688V4.87375H72.4996V17.4962ZM77.334 0H0V22.3577H77.334V0Z" fill="#00B188"/>
<path d="M4.8361 59.3242H0.00195312V36.9604H4.8361V45.7949H13.4732V36.9604H18.3073V59.3242H13.4732V50.0594H4.8361V59.3242Z" fill="#6E7379"/>
<path d="M25.6742 49.4539H31.4323C31.325 47.8098 30.6509 46.6639 28.7662 46.6639C27.3444 46.6639 26.1002 47.2731 25.6742 49.4539ZM29.3347 59.6133C24.4301 59.6133 21.0898 56.5009 21.0898 51.388C21.0898 46.414 24.3596 42.9808 28.6958 42.9808C33.4227 42.9808 35.7685 46.1641 35.7685 50.9222V52.7113H25.6742C26.2442 55.1775 28.1626 55.8207 30.0824 55.8207C31.7525 55.8207 32.9599 55.4644 34.4523 54.5328H34.6316V58.2175C33.3522 59.149 31.538 59.6133 29.3347 59.6133Z" fill="#6E7379"/>
<path d="M48.3522 49.9471L45.8638 59.3184H41.6349L36.8008 43.5866V43.4077H41.4219L44.0512 52.8159L46.5395 43.4077H50.3073L52.8308 52.8159L55.4969 43.4077H59.9403V43.5866L55.1062 59.3184H50.8757L48.3522 49.9471Z" fill="#6E7379"/>
<path d="M67.719 59.5713C63.8808 59.5713 62.3164 58.0336 62.3164 54.4214V36.8543H67.0081V54.0975C67.0081 55.2065 67.434 55.5998 68.3579 55.5998C68.6782 55.5998 69.1409 55.4934 69.4244 55.3854H69.4964V59.2844C69.1057 59.4263 68.4299 59.5697 67.719 59.5697" fill="#6E7379"/>
<path d="M75.4418 49.4539H81.1999C81.0926 47.8098 80.4185 46.6639 78.5338 46.6639C77.1135 46.6639 75.8678 47.2731 75.4418 49.4539ZM79.1023 59.6133C74.1977 59.6133 70.8574 56.5009 70.8574 51.388C70.8574 46.414 74.1272 42.9808 78.4633 42.9808C83.1902 42.9808 85.5361 46.1641 85.5361 50.9222V52.7113H75.4418C76.0103 55.1775 77.9301 55.8207 79.8485 55.8207C81.5201 55.8207 82.7275 55.4644 84.2214 54.5328H84.3991V58.2175C83.1197 59.149 81.3071 59.6133 79.1023 59.6133Z" fill="#6E7379"/>
<path d="M104.86 43.4079H108.343V47.199H104.86V53.6737C104.86 55.0695 105.393 55.7142 106.815 55.7142C107.206 55.7142 107.704 55.6772 108.237 55.4983H108.343V59.2184C107.739 59.4343 106.815 59.6826 105.465 59.6826C101.661 59.6826 100.169 57.9305 100.169 53.8881V47.199H94.1622V53.6737C94.1622 55.0695 94.6954 55.7142 96.1158 55.7142C96.508 55.7142 97.006 55.6772 97.5392 55.4983H97.6449V59.2184C97.0413 59.4343 96.1158 59.6826 94.7674 59.6826C90.9629 59.6826 89.4706 57.9305 89.4706 53.8881V47.199H87.0527V43.4079H89.4706V39.0447H94.1622V43.4079H100.169V39.0447H104.86V43.4079Z" fill="#6E7379"/>
<path d="M124.105 47.8499C126.559 47.8499 127.73 46.4556 127.73 44.4521C127.73 42.3762 126.559 40.9819 124.105 40.9819H121.048V47.8499H124.105ZM132.636 44.4521C132.636 49.3182 129.402 51.9633 124.495 51.9633H121.048V59.2246H116.217V36.8608H124.495C129.402 36.8608 132.636 39.5074 132.636 44.4444" fill="#6E7379"/>
<path d="M142.981 54.2657V52.9069C142.27 52.5152 141.347 52.3717 140.387 52.3717C138.859 52.3717 137.935 52.9424 137.935 54.2302C137.935 55.5551 138.859 56.1273 140.244 56.1273C141.559 56.1273 142.555 55.4471 142.981 54.2657ZM143.123 57.7005C142.092 58.9529 140.566 59.5605 138.928 59.5605C135.838 59.5605 133.312 57.6666 133.312 54.3012C133.312 51.1903 135.838 49.1159 139.461 49.1159C140.598 49.1159 141.773 49.2948 142.981 49.6511V49.3673C142.981 47.6491 142.022 46.8995 139.5 46.8995C137.898 46.8995 136.371 47.3622 135.055 48.1149H134.878V44.3223C136.086 43.6082 138.22 42.999 140.315 42.999C145.078 42.999 147.672 45.2878 147.672 49.2948V59.2737H143.123V57.7005Z" fill="#6E7379"/>
<path d="M149.969 51.3038C149.969 46.1879 153.56 42.969 158.252 42.969C159.922 42.969 161.485 43.3269 162.659 44.1844V48.2269H162.479C161.448 47.4403 160.241 46.9745 158.856 46.9745C156.51 46.9745 154.732 48.5862 154.732 51.3038C154.732 54.0214 156.51 55.5961 158.856 55.5961C160.241 55.5961 161.448 55.1303 162.479 54.3422H162.659V58.3847C161.485 59.2437 159.922 59.6016 158.252 59.6016C153.56 59.6016 149.969 56.4197 149.969 51.3038Z" fill="#6E7379"/>
<path d="M170.317 52.0443V59.2686H165.627V36.9047H170.317V49.6382L175.045 43.3424H180.376V43.5213L174.69 50.7472L180.376 59.0819V59.2608H175.009L170.317 52.0366" fill="#6E7379"/>
<path d="M190.909 54.2657V52.9069C190.2 52.5152 189.274 52.3717 188.315 52.3717C186.787 52.3717 185.863 52.9424 185.863 54.2302C185.863 55.5551 186.787 56.1273 188.171 56.1273C189.489 56.1273 190.483 55.4471 190.909 54.2657ZM191.051 57.7005C190.02 58.9529 188.491 59.5605 186.858 59.5605C183.764 59.5605 181.242 57.6666 181.242 54.3012C181.242 51.1903 183.764 49.1159 187.393 49.1159C188.529 49.1159 189.7 49.2948 190.909 49.6511V49.3673C190.909 47.6491 189.95 46.8995 187.426 46.8995C185.828 46.8995 184.297 47.3622 182.983 48.1149H182.805V44.3223C184.014 43.6082 186.147 42.999 188.243 42.999C193.008 42.999 195.602 45.2878 195.602 49.2948V59.2737H191.051V57.7005Z" fill="#6E7379"/>
<path d="M203.535 45.8751C204.387 44.1214 205.633 43.1204 207.375 43.1204C208.014 43.1204 208.653 43.2639 208.9 43.4073V47.914H208.724C208.19 47.6981 207.551 47.5562 206.663 47.5562C205.206 47.5562 204.069 48.4153 203.676 50.0594V59.2178H198.986V43.3009H203.535V45.8766" fill="#6E7379"/>
<path d="M221.309 53.8952V48.7793C220.528 47.6349 219.498 47.1352 218.323 47.1352C216.264 47.1352 214.877 48.639 214.877 51.3565C214.877 54.0741 216.264 55.5409 218.323 55.5409C219.498 55.5409 220.528 55.0396 221.309 53.8952ZM221.45 57.6523C220.456 58.9402 218.891 59.6543 216.76 59.6543C212.707 59.6543 210.113 55.9357 210.113 51.3565C210.113 46.7774 212.707 43.0218 216.76 43.0218C218.821 43.0218 220.313 43.6665 221.309 44.8464V36.9419H226.001V59.2903H221.45V57.6462" fill="#6E7379"/>
<path d="M0.0566406 66.6044H13.7761V69.322H3.14865V76.153H12.7802V78.8012H3.14865V86.2414H13.7761V88.959H0.0566406V66.6106" fill="#6E7379"/>
<path d="M25.063 72.8967C28.581 72.8967 30.5361 75.2226 30.5361 79.0475V88.957H27.5866V79.12C27.5866 77.0811 26.5554 75.6143 24.3168 75.6143C22.469 75.6143 20.9046 76.7957 20.3714 78.4753V88.957H17.4219V73.2252H20.3714V75.5141C21.2953 74.0473 22.8597 72.9029 25.063 72.9029" fill="#6E7379"/>
<path d="M38.4223 73.1438H42.4382V75.684H38.4223V84.1607C38.4223 85.9482 39.3462 86.5575 41.0163 86.5575C41.4775 86.5575 41.9755 86.4865 42.331 86.3431H42.4382V88.8818C42.0123 89.0607 41.4071 89.2041 40.5904 89.2041C36.9284 89.2041 35.4728 87.5214 35.4728 84.4475V75.684H32.7715V73.1438H35.4728V68.961H38.4223V73.1438Z" fill="#6E7379"/>
<path d="M47.3712 79.5595H55.1549C55.0492 77.2352 53.9107 75.4476 51.4944 75.4476C49.2559 75.4476 47.7972 77.1287 47.3712 79.5595ZM52.0276 89.29C47.4417 89.29 44.3145 86.2131 44.3145 81.2776C44.3145 76.3406 47.2287 72.9074 51.4592 72.9074C55.7601 72.9074 57.9987 76.0198 57.9987 80.6329V81.9933H47.264C47.5842 85.1766 49.6113 86.7143 52.4183 86.7143C54.1605 86.7143 55.4031 86.321 56.7898 85.2831H56.897V87.8958C55.6176 88.8967 53.946 89.29 52.0276 89.29Z" fill="#6E7379"/>
<path d="M64.5315 75.6113C65.2073 73.9301 66.7012 72.9292 68.405 72.9292C69.0822 72.9292 69.6859 73.0356 69.9341 73.179V76.111H69.8284C69.4009 75.8982 68.69 75.7902 67.979 75.7902C66.3809 75.7902 65.0295 76.8621 64.5315 78.6512V88.917H61.582V73.1852H64.5315V75.6175" fill="#6E7379"/>
<path d="M79.3636 86.5927C82.2778 86.5927 83.9847 84.2684 83.9847 81.0835C83.9847 77.9372 82.2778 75.5774 79.3636 75.5774C77.7639 75.5774 76.2715 76.5429 75.4901 78.0791V84.1266C76.2715 85.6627 77.7639 86.5927 79.3636 86.5927ZM79.8615 72.8937C84.5164 72.8937 87.0047 76.7218 87.0047 81.0835C87.0047 85.4499 84.5164 89.2764 79.8615 89.2764C77.9417 89.2764 76.3068 88.2754 75.4901 87.2004V95H72.5391V73.2223H75.4901V75.0098C76.3068 73.9009 77.9417 72.8999 79.8615 72.8999" fill="#6E7379"/>
<path d="M93.4612 75.6113C94.1354 73.9301 95.6293 72.9292 97.3347 72.9292C98.0104 72.9292 98.6141 73.0356 98.8623 73.179V76.111H98.7566C98.3306 75.8982 97.6197 75.7902 96.9087 75.7902C95.3091 75.7902 93.9592 76.8621 93.4612 78.6512V88.917H90.5117V73.1852H93.4612V75.6175" fill="#6E7379"/>
<path d="M103.142 66.8502C104.174 66.8502 105.026 67.6723 105.026 68.7103C105.026 69.7482 104.174 70.5703 103.142 70.5703C102.148 70.5703 101.258 69.7482 101.258 68.7103C101.258 67.6723 102.148 66.8502 103.142 66.8502Z" fill="#6E7379"/>
<path d="M101.674 88.9375H104.626V73.1934H101.674V88.9375Z" fill="#6E7379"/>
<path d="M115.156 79.6826C117.395 80.3967 119.882 81.3267 119.882 84.3312C119.882 87.5516 117.252 89.1973 113.877 89.1973C111.815 89.1973 109.754 88.696 108.58 87.766V84.9404H108.723C110.039 86.1558 111.992 86.6925 113.84 86.6925C115.51 86.6925 117.004 86.0478 117.004 84.689C117.004 83.2948 115.762 82.9724 113.307 82.1503C111.104 81.4347 108.652 80.6111 108.652 77.6436C108.652 74.6022 111.139 72.8146 114.303 72.8146C116.151 72.8146 117.786 73.2079 119.1 74.1024V76.965H118.995C117.717 75.927 116.221 75.3178 114.373 75.3178C112.526 75.3178 111.494 76.1414 111.494 77.2504C111.494 78.5027 112.631 78.859 115.156 79.6826Z" fill="#6E7379"/>
<path d="M125.453 79.5604H133.235C133.13 77.2361 131.993 75.4486 129.575 75.4486C127.336 75.4486 125.879 77.1297 125.453 79.5604ZM130.108 89.291C125.524 89.291 122.396 86.2141 122.396 81.2786C122.396 76.3416 125.311 72.9084 129.54 72.9084C133.842 72.9084 136.079 76.0208 136.079 80.6339V81.9942H125.346C125.666 85.1776 127.692 86.7153 130.499 86.7153C132.243 86.7153 133.485 86.322 134.87 85.284H134.978V87.8967C133.7 88.8977 132.028 89.291 130.108 89.291Z" fill="#6E7379"/>
</svg>
