<svg width="226" height="95" viewBox="0 0 226 95" fill="none" xmlns="http://www.w3.org/2000/svg">
<path fill-rule="evenodd" clip-rule="evenodd" d="M10.6367 19.4059H35.5318L38.2609 19.5196L40.8752 19.7469L43.3767 20.3142L45.7645 20.8826L47.9235 21.7909L49.9698 22.6992L51.9023 23.8349L53.7211 25.0843L55.3132 26.4473L56.9043 27.9229L58.2689 29.5133L59.5186 31.2162L60.5418 33.0329L61.5649 34.8506L62.3605 36.7809L63.0433 38.7112L98.3943 16L111.239 24.6296L83.7297 42.3423L88.1627 45.2946L115.9 27.6955L127.834 35.643L100.44 53.6968L105.1 56.5354L132.949 38.8227V19.4059H153.411V58.1247H171.599V76.2911H132.949V57.67L98.507 79.8118L63.3814 56.0807L62.6986 58.1247L62.0169 60.055L60.9937 61.9854L59.9705 63.9168L58.7198 65.6197L57.3552 67.3238L55.8779 68.913L54.173 70.275L52.4681 71.638L50.4218 72.7737L48.3755 73.7957L46.1015 74.704L43.7138 75.3849L41.2133 75.8386L38.5991 76.1796L35.7572 76.2933H10.6367V19.4059ZM30.1895 37.2323H35.5318L37.9195 37.4597L39.852 38.1406L41.5569 39.1626L43.0342 40.5257L44.0585 42.1149L44.854 43.819L45.3082 45.7493L45.422 47.6796L45.3082 49.6099L44.854 51.5413L44.0585 53.2443L42.9215 54.8347L41.5569 56.1966L39.852 57.2197L37.8057 57.9007L35.5318 58.128H30.1895V37.2323ZM176.715 19.4059H197.291V58.1247H215.366V76.2911H176.716L176.715 19.4059Z" fill="#0382C7"/>
</svg>
