<svg width="226" height="95" viewBox="0 0 226 95" fill="none" xmlns="http://www.w3.org/2000/svg">
<path d="M122.051 37.8736H126.658V50.6878C126.658 57.1922 123.073 60.9229 116.828 60.9229C110.648 60.9229 107.096 57.2571 107.096 50.8662V37.8899H111.702V50.7202C111.702 54.5158 113.568 56.5434 116.893 56.5434C120.218 56.5434 122.051 54.5645 122.051 50.8824V37.8736ZM96.0982 47.022H85.6847V37.8736H81.0781V60.5822H85.6847V51.3528H96.082V60.5822H100.689V37.8736H96.082V47.022H96.0982ZM211.458 37.8736V60.5498H216V37.8736H211.458ZM193.372 50.8013H201.758V46.6651H193.372V42.0099H205.537V37.8899H188.83V60.566H205.975V56.4298H193.372V50.8013ZM175.303 53.4777L170.144 37.8574H166.381L161.223 53.4777L156.211 37.8736H151.313L159.228 60.566H163.04L168.198 45.6594L173.356 60.566H177.2L185.1 37.8736H180.315L175.303 53.4777ZM143.121 38.0034L153.032 60.566H148.198L146.154 55.8459H135.757L135.611 56.1703L133.697 60.566H128.993L139.001 37.8736H143.024L143.121 38.0034ZM144.224 51.2068L140.948 43.5995L137.687 51.2068L137.46 51.7259H144.435L144.224 51.2068Z" fill="#24272A"/>
<path d="M35.7263 58.1659C35.7912 58.1172 35.8074 58.0199 35.775 57.9388C31.3023 48.3255 25.7225 39.2672 19.149 30.948C19.149 30.948 13.926 35.9115 14.2991 40.8911C14.3865 42.0392 14.6994 43.1587 15.2198 44.1858C15.7403 45.2128 16.4582 46.1271 17.3323 46.8765C21.8903 51.3209 32.9202 56.9331 35.483 58.2145C35.5641 58.247 35.6614 58.2308 35.7263 58.1659ZM34.0231 61.9615C33.9907 61.8641 33.8934 61.7993 33.7798 61.7993L15.4183 62.4319C17.4134 65.9841 20.7711 68.7416 24.2584 67.8981C26.6753 67.298 32.1254 63.4862 33.9258 62.1886C34.0718 62.075 34.0231 61.9777 34.0231 61.9615ZM34.2989 60.3232C34.3962 60.1772 34.234 60.0475 34.234 60.0475C26.1725 54.5974 10.536 46.2276 10.536 46.2276C10.0177 47.8162 9.87271 49.5029 10.1123 51.1566C10.3519 52.8103 10.9695 54.3865 11.9173 55.7627C12.8651 57.1388 14.1175 58.2779 15.5771 59.0914C17.0366 59.9048 18.6642 60.3708 20.3331 60.453C20.6089 60.5016 31.2495 60.453 34.1042 60.4367C34.1854 60.4205 34.2502 60.3881 34.2989 60.3232ZM35.5154 23.0162C34.7206 23.0811 32.5633 23.5839 32.5633 23.5839C27.6972 24.8329 26.5455 29.2611 26.5455 29.2611C25.6534 32.0348 26.5618 35.1004 26.5618 35.1004C28.1838 42.3023 36.1642 54.1594 37.8836 56.6412C37.9972 56.7709 38.0945 56.7223 38.0945 56.7223C38.1918 56.6898 38.2729 56.6087 38.2729 56.4952C40.933 30.0234 35.5154 23.0162 35.5154 23.0162ZM41.5981 56.6898C41.6954 56.7223 41.809 56.6898 41.8576 56.5925C43.6256 54.0459 51.5574 42.2536 53.1795 35.0842C53.1795 35.0842 54.0554 31.613 53.2119 29.2449C53.2119 29.2449 52.0116 24.7518 47.1455 23.5677C47.1455 23.5677 45.7505 23.2109 44.2582 23C44.2582 23 38.8082 30.0072 41.4683 56.479C41.4521 56.5763 41.517 56.6574 41.5981 56.6898ZM45.9452 61.8155C45.9019 61.8242 45.8609 61.8416 45.8247 61.8667C45.7884 61.8918 45.7577 61.9241 45.7343 61.9615C45.7181 62.0588 45.7343 62.1399 45.7992 62.2048C47.551 63.47 52.8875 67.2007 55.4503 67.9144C55.4503 67.9144 60.2029 69.5364 64.3229 62.4481L45.9452 61.8155ZM69.2215 46.1952C69.2215 46.1952 53.6174 54.5812 45.5396 60.0312C45.4585 60.0961 45.4099 60.1934 45.4423 60.2908C45.4423 60.2908 45.5234 60.4367 45.637 60.4367C48.5242 60.4367 59.4568 60.453 59.7487 60.4043C60.8355 60.3232 61.9061 60.0799 62.9117 59.6744C62.9117 59.6744 66.8046 58.4416 68.816 54.0135C68.816 54.0135 70.6164 50.4125 69.2215 46.1952ZM44.0636 58.1659C44.1285 58.2145 44.2258 58.2308 44.3069 58.1821C46.9346 56.8682 57.8834 51.3046 62.4089 46.8765C62.4089 46.8765 65.2799 44.5732 65.4259 40.8587C65.7503 35.7168 60.576 30.948 60.576 30.948C60.576 30.948 51.0059 42.5456 43.9825 57.8739C43.9712 57.9255 43.9727 57.9791 43.9869 58.0299C44.001 58.0808 44.0273 58.1275 44.0636 58.1659Z" fill="#CE0E2D"/>
</svg>
