<svg width="226" height="95" viewBox="0 0 226 95" fill="none" xmlns="http://www.w3.org/2000/svg">
<path fill-rule="evenodd" clip-rule="evenodd" d="M33.1379 75.2984H21C21 75.2984 23.2816 74.1571 23.2816 71.9786V35.8764C23.2816 33.3866 21 32.7649 21 32.7649H46.417V39.9231C46.417 39.9231 45.7943 37.5363 43.8241 37.5363H30.8563V49.2597H44.0313V55.7952C44.0313 55.7952 43.6158 54.2394 41.7498 54.2394H30.8563V71.8766C30.8552 74.2613 33.1379 75.2984 33.1379 75.2984ZM188.856 76.1105C179.919 76.08 173.708 70.627 173.708 65.0287V35.8764C173.708 33.801 171.219 32.7649 171.219 32.7649H183.462C183.462 32.7649 180.972 33.8021 180.972 35.7733V65.0287C180.972 67.8236 184.88 71.4096 188.65 71.3833C192.348 71.358 196.118 67.8541 196.118 65.0287V35.8249C196.118 33.6464 193.63 32.8164 193.63 32.8164H205.871C205.871 32.8164 203.381 33.6464 203.381 35.8249V65.0287C203.379 70.4755 197.187 76.1379 188.856 76.1105ZM65.6089 76.1105C56.672 76.08 50.4626 70.627 50.4626 65.0287V35.8764C50.4626 33.801 47.9728 32.7649 47.9728 32.7649H60.2148C60.2148 32.7649 57.725 33.8021 57.725 35.7733V65.0287C57.725 67.8236 61.6317 71.4096 65.4017 71.3833C69.1012 71.358 72.8713 67.8541 72.8713 65.0287V35.7733C72.8713 33.5948 70.3814 32.7649 70.3814 32.7649H82.6224C82.6224 32.7649 80.1325 33.5948 80.1325 35.7733V65.0287C80.1325 70.4755 73.941 76.1379 65.6089 76.1105ZM97.9769 32.7638C97.9769 32.7638 95.4871 33.801 95.4871 35.9795V80.7957C95.4871 80.7957 95.3598 88.5755 82.2079 91.9994C81.9376 92.0699 88.1217 85.464 88.1217 80.7957C88.1217 77.6831 88.1964 37.6373 88.1217 35.9795C88.0186 33.6969 85.6318 32.7638 85.6318 32.7638H97.9769ZM110.426 71.9786C110.53 74.2613 112.916 75.1943 112.916 75.1943H100.571C100.571 75.1943 103.06 74.1582 103.06 71.9786H103.072C103.09 59.1181 103.114 37.1808 103.06 35.9795C102.956 33.6969 100.571 32.7638 100.571 32.7638H112.916C112.916 32.7638 110.426 33.801 110.426 35.9795V71.9786ZM132.834 37.5363V71.9797C132.939 74.2623 135.324 75.1954 135.324 75.1954H122.978C122.978 75.1954 125.468 74.1592 125.468 71.9797H125.481C125.496 60.9327 125.516 43.0809 125.487 37.5374H117.273C114.678 37.5374 113.226 40.4417 113.226 40.4417L115.715 32.7649H144.661L142.896 39.82C142.896 39.82 142.793 37.5374 140.303 37.5374L132.834 37.5363ZM96.8545 20.0495C98.3461 23.2957 102.587 25.7666 107.106 25.7666C113.669 25.7666 118.989 20.4461 118.989 13.8833C118.989 7.3205 113.669 2 107.106 2C103.53 2 100.322 3.5789 98.1431 6.08032L98.2241 12.3749C98.6018 8.05789 103.289 5.61643 107.106 5.71951C111.618 5.84154 115.279 9.37907 115.279 13.8917C115.279 18.4044 111.619 22.065 107.106 22.065C104.205 22.065 101.708 20.5008 100.258 18.2224L99.8809 17.4955C98.2515 14.4745 94.9454 12.1456 91.1301 12.1456C89.8392 12.1454 88.5609 12.3996 87.3682 12.8936C86.1755 13.3875 85.0918 14.1116 84.179 15.0244C83.2661 15.9372 82.5421 17.0209 82.0481 18.2136C81.5541 19.4063 81.3 20.6846 81.3001 21.9756C81.3 23.2665 81.5541 24.5448 82.0481 25.7375C82.5421 26.9302 83.2661 28.0139 84.179 28.9267C85.0918 29.8396 86.1755 30.5636 87.3682 31.0576C88.5609 31.5515 89.8392 31.8057 91.1301 31.8056C92.6073 31.8068 94.0656 31.4745 95.3965 30.8336C96.7273 30.1927 97.8963 29.2596 98.8163 28.1039V23.6881L95.2683 26.6397C94.208 27.3708 92.6575 27.9914 91.1301 27.9914C89.5544 27.9619 88.0531 27.3153 86.9492 26.1905C85.8453 25.0657 85.2268 23.5526 85.2268 21.9766C85.2268 20.4006 85.8453 18.8875 86.9492 17.7628C88.0531 16.638 89.5544 15.9913 91.1301 15.9619C93.5874 15.9619 95.6017 17.4892 96.7841 19.9202L96.8545 20.0495ZM166.809 39.4034V34.165C166.809 33.4392 162.063 32.3526 159.055 32.3231C156.878 32.301 144.247 32.8143 144.247 43.8645C144.247 52.9414 153.79 56.521 155.035 57.1437C156.281 57.7664 163.282 60.879 163.282 64.6143C163.282 69.4899 159.134 71.9282 154.154 71.9282C149.173 71.9282 145.122 68.7009 143.986 67.7258C143.898 67.6511 145.699 75.1954 145.699 75.1954C145.699 75.1954 150.198 76.3367 153.998 76.3367C155.763 76.3367 170.701 76.3367 170.701 64.5102C170.701 55.5375 161.519 52.3218 159.706 51.4393C158.035 50.6282 151.56 48.1195 151.56 43.4511C151.56 39.7169 156.022 36.6043 159.342 36.6043C164.015 36.6022 165.669 38.1075 166.809 39.4034Z" fill="#CF4037"/>
</svg>
