<svg width="226" height="95" viewBox="0 0 226 95" fill="none" xmlns="http://www.w3.org/2000/svg">
<path d="M218.474 60.7227V65.6387H217.838V61.8501H217.798L216.744 65.6387H216.197L215.151 61.8501V65.6387H214.508V60.7227H215.465L216.519 64.5739L217.516 60.7227H218.474ZM214.098 60.7227V61.4322H212.867V65.6382H212.231V61.4322H211.001V60.7227H214.098ZM198.185 53.3852C199.142 49.3668 199.142 46.9978 198.226 45.4529C197.541 44.3883 196.544 43.8561 195.032 43.8561C191.661 43.8561 189.795 46.3401 188.29 52.5604C187.325 56.6413 187.325 59.0103 188.242 60.5452C188.877 61.5573 189.931 62.0898 191.435 62.0898C194.758 62.0898 196.681 59.6581 198.185 53.3852ZM211.362 44.3883C212.681 46.5282 212.963 49.2419 212.183 52.5609C209.995 61.735 201.741 66.9953 189.513 66.9953C182.216 66.9953 177.253 65.1586 175.056 61.6097C173.737 59.4809 173.512 56.7042 174.284 53.3852C176.472 44.2111 184.726 38.9508 196.954 38.9508C204.202 38.9508 209.223 40.84 211.362 44.3883ZM165.757 39.8376H178.709C177.928 41.1947 163.842 65.7533 163.609 66.1709H143.73C143.634 65.3985 141.261 40.7876 141.172 39.8376H153.352C153.44 40.6101 155.13 58.3013 155.13 58.3013C155.13 58.3013 165.572 40.1926 165.757 39.8376ZM125.573 53.3852C126.531 49.3668 126.579 46.9978 125.621 45.4529C124.978 44.3883 123.932 43.8561 122.476 43.8561C119.097 43.8561 117.183 46.3401 115.726 52.5604C114.721 56.6413 114.721 59.0103 115.678 60.5452C116.314 61.5573 117.367 62.0898 118.823 62.0898C122.202 62.0898 124.117 59.6581 125.573 53.3852ZM138.799 44.3883C140.126 46.5282 140.4 49.2419 139.579 52.5609C137.391 61.735 129.129 66.9953 116.957 66.9953C109.661 66.9953 104.689 65.1586 102.493 61.6097C101.174 59.4809 100.9 56.7042 101.673 53.3852C103.909 44.2111 112.163 38.9508 124.342 38.9508C131.639 38.9508 136.611 40.84 138.799 44.3883ZM100.675 43.0947C101.174 43.9193 101.447 44.7433 101.31 45.9332L96.2502 66.2234H82.8398L87.5865 47.2906C87.7633 46.466 87.5382 45.7562 87.176 45.224C86.5323 44.2116 85.1649 43.5645 80.4669 43.9817C80.4669 43.9817 74.9083 65.9313 74.8114 66.2234H61.4087C61.5378 65.7535 67.6998 41.3203 67.7883 41.0802C72.4465 40.0156 78.6004 39.0135 84.9879 39.0135C93.6517 39.0138 98.9371 40.3706 100.675 43.0947ZM51.7389 48.6578C52.0126 46.9983 51.6023 45.7562 51.1433 45.0465C50.6448 44.2116 49.5425 43.1468 47.2661 43.1468C44.0321 43.1468 41.6105 45.1613 40.7898 48.5324L39.1969 56.2873L51.7389 48.6578ZM63.0014 48.5948C63.0014 49.8369 62.7763 50.9017 62.5912 51.3713C62.1809 51.4966 38.787 58.2391 38.787 58.2391C38.787 58.2391 38.5534 59.7213 39.4224 60.4933C40.5649 61.5581 41.7957 61.8504 43.8874 61.9652C49.0441 62.2575 56.0264 58.3539 57.9819 57.237C57.6681 58.5312 55.6568 64.2196 55.5683 64.5117C54.6992 64.9292 49.8644 66.9331 40.3796 66.9958C36.7754 67.0585 30.3478 66.4635 27.7011 62.1425C26.3819 60.0137 26.1488 56.997 27.0576 53.2085C29.2056 44.1592 37.2343 38.9513 48.9956 38.9513C55.5683 38.9513 59.856 40.5481 61.819 43.6793C62.5912 44.9838 63.0014 46.6433 63.0014 48.5948ZM17.3476 27H30.6217C30.3482 28.1169 21.4106 65.5133 21.2657 66.1709H8C8.27324 65.0437 17.2108 27.6474 17.3476 27Z" fill="#005E9D"/>
</svg>
