<svg width="192" height="25" viewBox="0 0 192 25" fill="none" xmlns="http://www.w3.org/2000/svg">
<g clip-path="url(#clip0_2034_3517)">
<mask id="mask0_2034_3517" style="mask-type:luminance" maskUnits="userSpaceOnUse" x="-12" y="-14" width="212" height="53">
<path d="M199.69 -14H-12V39H199.69V-14Z" fill="white"/>
</mask>
<g mask="url(#mask0_2034_3517)">
<path d="M11.2458 3.6665H0.0878906V7.3858H11.2458V3.6665Z" fill="#3DF3BB"/>
<path d="M10.316 10.7954H0.0878906V14.5147H10.316V10.7954Z" fill="#3DF3BB"/>
<path d="M11.2458 17.9238H0.0878906V21.6431H11.2458V17.9238Z" fill="#3DF3BB"/>
<path d="M11.2452 13.5846C13.984 13.5846 16.2043 11.3644 16.2043 8.62557C16.2043 5.88674 13.984 3.6665 11.2452 3.6665C8.50637 3.6665 6.28613 5.88674 6.28613 8.62557C6.28613 11.3644 8.50637 13.5846 11.2452 13.5846Z" fill="#3DF3BB"/>
<path d="M11.2452 21.6432C13.984 21.6432 16.2043 19.4231 16.2043 16.6842C16.2043 13.9453 13.984 11.7251 11.2452 11.7251C8.50637 11.7251 6.28613 13.9453 6.28613 16.6842C6.28613 19.4231 8.50637 21.6432 11.2452 21.6432Z" fill="#3DF3BB"/>
<path d="M10.6253 17.924C11.6523 17.924 12.4849 17.1609 12.4849 16.2193C12.4849 15.2778 11.6523 14.5146 10.6253 14.5146C9.59822 14.5146 8.76562 15.2778 8.76562 16.2193C8.76562 17.1609 9.59822 17.924 10.6253 17.924Z" fill="#1C2A3C"/>
<path d="M10.6253 10.7951C11.6523 10.7951 12.4849 10.0319 12.4849 9.09042C12.4849 8.14894 11.6523 7.38574 10.6253 7.38574C9.59822 7.38574 8.76562 8.14894 8.76562 9.09042C8.76562 10.0319 9.59822 10.7951 10.6253 10.7951Z" fill="#1C2A3C"/>
<path d="M10.6257 14.5146H5.97656V17.924H10.6257V14.5146Z" fill="#1C2A3C"/>
<path d="M10.6257 7.38574H5.97656V10.7951H10.6257V7.38574Z" fill="#1C2A3C"/>
<path d="M37.2807 3.6665H23.0234V7.3858H37.2807V3.6665Z" fill="#3DF3BB"/>
<path d="M37.2807 10.7954H23.0234V14.5147H37.2807V10.7954Z" fill="#3DF3BB"/>
<path d="M37.2807 17.9238H23.0234V21.6431H37.2807V17.9238Z" fill="#3DF3BB"/>
<path d="M164.666 3.97656H150.409V7.69586H164.666V3.97656Z" fill="#3DF3BB"/>
<path d="M164.666 11.105H150.409V14.8243H164.666V11.105Z" fill="#3DF3BB"/>
<path d="M164.666 18.2339H150.409V21.9532H164.666V18.2339Z" fill="#3DF3BB"/>
<path d="M57.4272 17.9238H43.1699V21.6431H57.4272V17.9238Z" fill="#3DF3BB"/>
<path d="M43.1699 3.6665V21.6431H48.4389V3.6665H43.1699Z" fill="#3DF3BB"/>
<path d="M75.0932 3.97656H59.2861V7.69586H75.0932V3.97656Z" fill="#3DF3BB"/>
<path d="M64.5557 7.38574V21.6431H69.8247V7.38574H64.5557Z" fill="#3DF3BB"/>
<path d="M85.9419 12.9648H80.6729V21.6432H85.9419V12.9648Z" fill="#3DF3BB"/>
<path d="M90.281 3.97656H80.6729V7.69586H90.281V3.97656Z" fill="#3DF3BB"/>
<path d="M96.7893 16.374H88.4209V21.643H96.7893V16.374Z" fill="#3DF3BB"/>
<path d="M98.5852 16.3423L96.857 21.8851L92.7812 16.1938L98.5852 16.3423Z" fill="#1C2A3C"/>
<path d="M90.2803 17.304C93.875 17.304 96.789 14.3206 96.789 10.6403C96.789 6.96003 93.875 3.97656 90.2803 3.97656C86.6856 3.97656 83.7715 6.96003 83.7715 10.6403C83.7715 14.3206 86.6856 17.304 90.2803 17.304Z" fill="#3DF3BB"/>
<path d="M86.3486 21.9449L92.1467 22.2434L88.2197 16.4487L86.3486 21.9449Z" fill="#1C2A3C"/>
<path d="M88.7305 12.9648H83.7715V16.9941H88.7305V12.9648Z" fill="#3DF3BB"/>
<path d="M89.5056 12.9648C90.9605 12.9648 92.1401 11.7853 92.1401 10.3303C92.1401 8.87531 90.9605 7.6958 89.5056 7.6958C88.0507 7.6958 86.8711 8.87531 86.8711 10.3303C86.8711 11.7853 88.0507 12.9648 89.5056 12.9648Z" fill="#1C2A3C"/>
<path d="M89.6609 7.6958H80.0527V12.9648H89.6609V7.6958Z" fill="#1C2A3C"/>
<path d="M175.824 13.2749H170.865V21.9533H175.824V13.2749Z" fill="#3DF3BB"/>
<path d="M180.473 4.28662H170.865V8.00592H180.473V4.28662Z" fill="#3DF3BB"/>
<path d="M186.983 16.6841H178.614V21.9531H186.983V16.6841Z" fill="#3DF3BB"/>
<path d="M188.778 16.6519L187.049 22.1946L182.974 16.5034L188.778 16.6519Z" fill="#1C2A3C"/>
<path d="M180.474 17.6141C184.068 17.6141 186.982 14.6306 186.982 10.9504C186.982 7.27009 184.068 4.28662 180.474 4.28662C176.879 4.28662 173.965 7.27009 173.965 10.9504C173.965 14.6306 176.879 17.6141 180.474 17.6141Z" fill="#3DF3BB"/>
<path d="M176.542 22.255L182.34 22.5535L178.413 16.7588L176.542 22.255Z" fill="#1C2A3C"/>
<path d="M179.854 13.2749H174.895V17.3041H179.854V13.2749Z" fill="#3DF3BB"/>
<path d="M179.699 13.2749C181.154 13.2749 182.333 12.0954 182.333 10.6404C182.333 9.18537 181.154 8.00586 179.699 8.00586C178.244 8.00586 177.064 9.18537 177.064 10.6404C177.064 12.0954 178.244 13.2749 179.699 13.2749Z" fill="#1C2A3C"/>
<path d="M179.854 8.00586H170.246V13.2749H179.854V8.00586Z" fill="#1C2A3C"/>
<path d="M135.842 21.6431C140.806 21.6431 144.83 17.6188 144.83 12.6548C144.83 7.69069 140.806 3.6665 135.842 3.6665C130.878 3.6665 126.854 7.69069 126.854 12.6548C126.854 17.6188 130.878 21.6431 135.842 21.6431Z" fill="#3DF3BB"/>
<path d="M135.222 3.6665H125.924V7.3858H135.222V3.6665Z" fill="#3DF3BB"/>
<path d="M135.532 17.6138H127.783V21.643H135.532V17.6138Z" fill="#3DF3BB"/>
<path d="M134.913 17.9238C137.823 17.9238 140.182 15.5647 140.182 12.6547C140.182 9.74477 137.823 7.38574 134.913 7.38574C132.003 7.38574 129.644 9.74477 129.644 12.6547C129.644 15.5647 132.003 17.9238 134.913 17.9238Z" fill="#1C2A3C"/>
<path d="M131.193 12.9648H125.924V21.6432H131.193V12.9648Z" fill="#3DF3BB"/>
<path d="M134.913 7.38574H126.234V12.9647H134.913V7.38574Z" fill="#1C2A3C"/>
<path d="M134.913 16.374H131.193V17.9237H134.913V16.374Z" fill="#1C2A3C"/>
<path d="M121.275 3.6665H100.818V21.6431H121.275V3.6665Z" fill="#3DF3BB"/>
<path d="M123.134 10.1439L121.296 22.1353L113.051 3.39795L123.134 10.1439Z" fill="#1C2A3C"/>
<path d="M98.3545 10.6713L108.937 3.54736L100.78 23.196L98.3545 10.6713Z" fill="#1C2A3C"/>
<path d="M111.202 9.24561L116.436 22.0307H105.968L111.202 9.24561Z" fill="#1C2A3C"/>
<path d="M108.853 3.62628L104.52 -0.982422L97.0537 6.038L101.387 10.6467L108.853 3.62628Z" fill="#1C2A3C"/>
<path d="M121.536 9.72359L125.155 4.69094L116.835 -1.29248L113.216 3.74016L121.536 9.72359Z" fill="#1C2A3C"/>
</g>
</g>
<defs>
<clipPath id="clip0_2034_3517">
<rect width="192" height="25" fill="white"/>
</clipPath>
</defs>
</svg>
